<?xml version="1.0" encoding="UTF-8" standalone="no"?>
<!DOCTYPE svg PUBLIC "-//W3C//DTD SVG 1.1//EN"
 "http://www.w3.org/Graphics/SVG/1.1/DTD/svg11.dtd">
<!-- Generated by graphviz version 2.43.0 (0)
 -->
<!-- Title: G Pages: 1 -->
<svg width="1864pt" height="955pt"
 viewBox="0.00 0.00 1864.00 955.00" xmlns="http://www.w3.org/2000/svg" xmlns:xlink="http://www.w3.org/1999/xlink">
<g id="graph0" class="graph" transform="scale(1 1) rotate(0) translate(4 951)">
<title>G</title>
<polygon fill="white" stroke="transparent" points="-4,4 -4,-951 1860,-951 1860,4 -4,4"/>
<g id="clust1" class="cluster">
<title>cluster_module.acm</title>
<polygon fill="none" stroke="black" points="708,-864 708,-939 905,-939 905,-864 708,-864"/>
<text text-anchor="middle" x="806.5" y="-923.8" font-family="sans-serif" font-size="14.00">module.acm</text>
</g>
<g id="clust2" class="cluster">
<title>cluster_module.alb</title>
<polygon fill="none" stroke="black" points="353,-727 353,-856 1236,-856 1236,-727 353,-727"/>
<text text-anchor="middle" x="794.5" y="-840.8" font-family="sans-serif" font-size="14.00">module.alb</text>
</g>
<g id="clust3" class="cluster">
<title>cluster_module.ecr</title>
<polygon fill="none" stroke="black" points="349.5,-8 349.5,-83 936,-83 936,-8 349.5,-8"/>
<text text-anchor="middle" x="642.75" y="-67.8" font-family="sans-serif" font-size="14.00">module.ecr</text>
</g>
<g id="clust4" class="cluster">
<title>cluster_module.ecs</title>
<polygon fill="none" stroke="black" points="317,-419 317,-710 1289,-710 1289,-419 317,-419"/>
<text text-anchor="middle" x="803" y="-694.8" font-family="sans-serif" font-size="14.00">module.ecs</text>
</g>
<g id="clust5" class="cluster">
<title>cluster_module.elasticache</title>
<polygon fill="none" stroke="black" points="1309,-242 1309,-371 1848,-371 1848,-242 1309,-242"/>
<text text-anchor="middle" x="1578.5" y="-355.8" font-family="sans-serif" font-size="14.00">module.elasticache</text>
</g>
<g id="clust6" class="cluster">
<title>cluster_module.networking</title>
<polygon fill="none" stroke="black" points="8,-91 8,-274 1284.5,-274 1284.5,-91 8,-91"/>
<text text-anchor="middle" x="646.25" y="-258.8" font-family="sans-serif" font-size="14.00">module.networking</text>
</g>
<g id="clust7" class="cluster">
<title>cluster_module.rds</title>
<polygon fill="none" stroke="black" points="694,-282 694,-411 1254.5,-411 1254.5,-282 694,-282"/>
<text text-anchor="middle" x="974.25" y="-395.8" font-family="sans-serif" font-size="14.00">module.rds</text>
</g>
<!-- module.acm.aws_acm_certificate.api -->
<g id="node1" class="node">
<title>module.acm.aws_acm_certificate.api</title>
<polygon fill="none" stroke="black" points="897,-908 716,-908 716,-872 897,-872 897,-908"/>
<text text-anchor="middle" x="806.5" y="-886.3" font-family="sans-serif" font-size="14.00">aws_acm_certificate.api</text>
</g>
<!-- module.alb.aws_lb.backend_alb -->
<g id="node2" class="node">
<title>module.alb.aws_lb.backend_alb</title>
<polygon fill="none" stroke="black" points="883.5,-771 729.5,-771 729.5,-735 883.5,-735 883.5,-771"/>
<text text-anchor="middle" x="806.5" y="-749.3" font-family="sans-serif" font-size="14.00">aws_lb.backend_alb</text>
</g>
<!-- module.alb.aws_security_group.alb_sg -->
<g id="node6" class="node">
<title>module.alb.aws_security_group.alb_sg</title>
<polygon fill="none" stroke="black" points="563,-771 361,-771 361,-735 563,-735 563,-771"/>
<text text-anchor="middle" x="462" y="-749.3" font-family="sans-serif" font-size="14.00">aws_security_group.alb_sg</text>
</g>
<!-- module.alb.aws_lb.backend_alb&#45;&gt;module.alb.aws_security_group.alb_sg -->
<g id="edge1" class="edge">
<title>module.alb.aws_lb.backend_alb&#45;&gt;module.alb.aws_security_group.alb_sg</title>
<path fill="none" stroke="black" d="M729.49,-753C683.58,-753 624.27,-753 573.27,-753"/>
<polygon fill="black" stroke="black" points="573.18,-749.5 563.18,-753 573.18,-756.5 573.18,-749.5"/>
</g>
<!-- module.networking.aws_subnet.public -->
<g id="node28" class="node">
<title>module.networking.aws_subnet.public</title>
<polygon fill="none" stroke="black" points="534.5,-189 389.5,-189 389.5,-153 534.5,-153 534.5,-189"/>
<text text-anchor="middle" x="462" y="-167.3" font-family="sans-serif" font-size="14.00">aws_subnet.public</text>
</g>
<!-- module.alb.aws_lb.backend_alb&#45;&gt;module.networking.aws_subnet.public -->
<g id="edge2" class="edge">
<title>module.alb.aws_lb.backend_alb&#45;&gt;module.networking.aws_subnet.public</title>
<path fill="none" stroke="black" d="M729.28,-754.82C695.38,-751.37 658,-740.88 635,-714 560.27,-626.66 674.99,-284.25 599,-198 585.19,-182.32 565.11,-174.17 544.6,-170.25"/>
<polygon fill="black" stroke="black" points="544.95,-166.76 534.52,-168.65 543.85,-173.67 544.95,-166.76"/>
</g>
<!-- module.alb.aws_lb_listener.http -->
<g id="node3" class="node">
<title>module.alb.aws_lb_listener.http</title>
<polygon fill="none" stroke="black" points="1224,-771 1071,-771 1071,-735 1224,-735 1224,-771"/>
<text text-anchor="middle" x="1147.5" y="-749.3" font-family="sans-serif" font-size="14.00">aws_lb_listener.http</text>
</g>
<!-- module.alb.aws_lb_listener.http&#45;&gt;module.alb.aws_lb.backend_alb -->
<g id="edge3" class="edge">
<title>module.alb.aws_lb_listener.http&#45;&gt;module.alb.aws_lb.backend_alb</title>
<path fill="none" stroke="black" d="M1070.84,-753C1018.3,-753 948.2,-753 893.53,-753"/>
<polygon fill="black" stroke="black" points="893.51,-749.5 883.51,-753 893.51,-756.5 893.51,-749.5"/>
</g>
<!-- module.alb.aws_lb_listener.https -->
<g id="node4" class="node">
<title>module.alb.aws_lb_listener.https</title>
<polygon fill="none" stroke="black" points="1228,-825 1067,-825 1067,-789 1228,-789 1228,-825"/>
<text text-anchor="middle" x="1147.5" y="-803.3" font-family="sans-serif" font-size="14.00">aws_lb_listener.https</text>
</g>
<!-- module.alb.aws_lb_listener.https&#45;&gt;module.acm.aws_acm_certificate.api -->
<g id="edge4" class="edge">
<title>module.alb.aws_lb_listener.https&#45;&gt;module.acm.aws_acm_certificate.api</title>
<path fill="none" stroke="black" d="M1095,-825.12C1061.89,-836.29 1017.77,-850.29 978,-860 955.26,-865.55 930.58,-870.5 907.24,-874.7"/>
<polygon fill="black" stroke="black" points="906.57,-871.27 897.33,-876.46 907.79,-878.16 906.57,-871.27"/>
</g>
<!-- module.alb.aws_lb_listener.https&#45;&gt;module.alb.aws_lb.backend_alb -->
<g id="edge5" class="edge">
<title>module.alb.aws_lb_listener.https&#45;&gt;module.alb.aws_lb.backend_alb</title>
<path fill="none" stroke="black" d="M1066.79,-794.2C1038.73,-789.7 1006.97,-784.61 978,-780 950.71,-775.65 920.95,-770.93 894.05,-766.67"/>
<polygon fill="black" stroke="black" points="894.32,-763.17 883.89,-765.07 893.22,-770.09 894.32,-763.17"/>
</g>
<!-- module.alb.aws_lb_target_group.backend_target -->
<g id="node5" class="node">
<title>module.alb.aws_lb_target_group.backend_target</title>
<polygon fill="none" stroke="black" points="941,-825 672,-825 672,-789 941,-789 941,-825"/>
<text text-anchor="middle" x="806.5" y="-803.3" font-family="sans-serif" font-size="14.00">aws_lb_target_group.backend_target</text>
</g>
<!-- module.alb.aws_lb_listener.https&#45;&gt;module.alb.aws_lb_target_group.backend_target -->
<g id="edge6" class="edge">
<title>module.alb.aws_lb_listener.https&#45;&gt;module.alb.aws_lb_target_group.backend_target</title>
<path fill="none" stroke="black" d="M1066.59,-807C1032.2,-807 990.9,-807 951.48,-807"/>
<polygon fill="black" stroke="black" points="951.24,-803.5 941.24,-807 951.24,-810.5 951.24,-803.5"/>
</g>
<!-- module.networking.aws_vpc.main -->
<g id="node29" class="node">
<title>module.networking.aws_vpc.main</title>
<polygon fill="none" stroke="black" points="209.5,-243 95.5,-243 95.5,-207 209.5,-207 209.5,-243"/>
<text text-anchor="middle" x="152.5" y="-221.3" font-family="sans-serif" font-size="14.00">aws_vpc.main</text>
</g>
<!-- module.alb.aws_lb_target_group.backend_target&#45;&gt;module.networking.aws_vpc.main -->
<g id="edge7" class="edge">
<title>module.alb.aws_lb_target_group.backend_target&#45;&gt;module.networking.aws_vpc.main</title>
<path fill="none" stroke="black" d="M739.55,-825.01C637.2,-848.68 439.19,-876.76 317,-780 231.06,-711.94 172.81,-356.46 157.51,-253.17"/>
<polygon fill="black" stroke="black" points="160.95,-252.56 156.04,-243.18 154.03,-253.58 160.95,-252.56"/>
</g>
<!-- module.alb.aws_security_group.alb_sg&#45;&gt;module.networking.aws_vpc.main -->
<g id="edge8" class="edge">
<title>module.alb.aws_security_group.alb_sg&#45;&gt;module.networking.aws_vpc.main</title>
<path fill="none" stroke="black" d="M360.96,-739.69C344.79,-733.88 329.34,-725.64 317,-714 179.77,-584.53 157.68,-336.8 154.16,-253.28"/>
<polygon fill="black" stroke="black" points="157.65,-253.14 153.79,-243.27 150.66,-253.39 157.65,-253.14"/>
</g>
<!-- module.ecr.aws_ecr_lifecycle_policy.backend -->
<g id="node7" class="node">
<title>module.ecr.aws_ecr_lifecycle_policy.backend</title>
<polygon fill="none" stroke="black" points="928,-52 685,-52 685,-16 928,-16 928,-52"/>
<text text-anchor="middle" x="806.5" y="-30.3" font-family="sans-serif" font-size="14.00">aws_ecr_lifecycle_policy.backend</text>
</g>
<!-- module.ecr.aws_ecr_repository.backend -->
<g id="node8" class="node">
<title>module.ecr.aws_ecr_repository.backend</title>
<polygon fill="none" stroke="black" points="566.5,-52 357.5,-52 357.5,-16 566.5,-16 566.5,-52"/>
<text text-anchor="middle" x="462" y="-30.3" font-family="sans-serif" font-size="14.00">aws_ecr_repository.backend</text>
</g>
<!-- module.ecr.aws_ecr_lifecycle_policy.backend&#45;&gt;module.ecr.aws_ecr_repository.backend -->
<g id="edge9" class="edge">
<title>module.ecr.aws_ecr_lifecycle_policy.backend&#45;&gt;module.ecr.aws_ecr_repository.backend</title>
<path fill="none" stroke="black" d="M684.75,-34C649.69,-34 611.53,-34 576.91,-34"/>
<polygon fill="black" stroke="black" points="576.76,-30.5 566.76,-34 576.76,-37.5 576.76,-30.5"/>
</g>
<!-- module.ecs.aws_cloudwatch_log_group.backend -->
<g id="node9" class="node">
<title>module.ecs.aws_cloudwatch_log_group.backend</title>
<polygon fill="none" stroke="black" points="1281,-679 1014,-679 1014,-643 1281,-643 1281,-679"/>
<text text-anchor="middle" x="1147.5" y="-657.3" font-family="sans-serif" font-size="14.00">aws_cloudwatch_log_group.backend</text>
</g>
<!-- module.ecs.aws_ecs_cluster.main -->
<g id="node10" class="node">
<title>module.ecs.aws_ecs_cluster.main</title>
<polygon fill="none" stroke="black" points="889,-679 724,-679 724,-643 889,-643 889,-679"/>
<text text-anchor="middle" x="806.5" y="-657.3" font-family="sans-serif" font-size="14.00">aws_ecs_cluster.main</text>
</g>
<!-- module.ecs.aws_ecs_service.backend -->
<g id="node11" class="node">
<title>module.ecs.aws_ecs_service.backend</title>
<polygon fill="none" stroke="black" points="1244,-625 1051,-625 1051,-589 1244,-589 1244,-625"/>
<text text-anchor="middle" x="1147.5" y="-603.3" font-family="sans-serif" font-size="14.00">aws_ecs_service.backend</text>
</g>
<!-- module.ecs.aws_ecs_service.backend&#45;&gt;module.alb.aws_lb_target_group.backend_target -->
<g id="edge10" class="edge">
<title>module.ecs.aws_ecs_service.backend&#45;&gt;module.alb.aws_lb_target_group.backend_target</title>
<path fill="none" stroke="black" d="M1050.97,-612.87C1037.26,-617.36 1024.33,-624.08 1014,-634 965.79,-680.29 1027.22,-734.79 978,-780 969.89,-787.45 960.59,-793.32 950.62,-797.91"/>
<polygon fill="black" stroke="black" points="949.19,-794.71 941.29,-801.77 951.86,-801.18 949.19,-794.71"/>
</g>
<!-- module.ecs.aws_ecs_service.backend&#45;&gt;module.ecs.aws_ecs_cluster.main -->
<g id="edge11" class="edge">
<title>module.ecs.aws_ecs_service.backend&#45;&gt;module.ecs.aws_ecs_cluster.main</title>
<path fill="none" stroke="black" d="M1050.71,-622.38C1026.95,-626.19 1001.55,-630.25 978,-634 952.39,-638.08 924.62,-642.48 899.07,-646.53"/>
<polygon fill="black" stroke="black" points="898.36,-643.1 889.03,-648.12 899.45,-650.01 898.36,-643.1"/>
</g>
<!-- module.ecs.aws_ecs_task_definition.backend -->
<g id="node12" class="node">
<title>module.ecs.aws_ecs_task_definition.backend</title>
<polygon fill="none" stroke="black" points="929,-517 684,-517 684,-481 929,-481 929,-517"/>
<text text-anchor="middle" x="806.5" y="-495.3" font-family="sans-serif" font-size="14.00">aws_ecs_task_definition.backend</text>
</g>
<!-- module.ecs.aws_ecs_service.backend&#45;&gt;module.ecs.aws_ecs_task_definition.backend -->
<g id="edge12" class="edge">
<title>module.ecs.aws_ecs_service.backend&#45;&gt;module.ecs.aws_ecs_task_definition.backend</title>
<path fill="none" stroke="black" d="M1115.94,-588.94C1083.01,-570.29 1028.5,-541.77 978,-526 965.58,-522.12 952.46,-518.78 939.24,-515.91"/>
<polygon fill="black" stroke="black" points="939.63,-512.42 929.13,-513.8 938.21,-519.27 939.63,-512.42"/>
</g>
<!-- module.ecs.aws_ecs_task_definition.backend&#45;&gt;module.ecr.aws_ecr_repository.backend -->
<g id="edge13" class="edge">
<title>module.ecs.aws_ecs_task_definition.backend&#45;&gt;module.ecr.aws_ecr_repository.backend</title>
<path fill="none" stroke="black" d="M683.79,-499.82C665.34,-494.67 648.12,-485.99 635,-472 576.21,-409.33 650.74,-155.6 599,-87 589.02,-73.76 575.25,-63.83 560.3,-56.38"/>
<polygon fill="black" stroke="black" points="561.4,-53.04 550.85,-52.05 558.48,-59.4 561.4,-53.04"/>
</g>
<!-- module.ecs.aws_iam_role.ecs_execution -->
<g id="node13" class="node">
<title>module.ecs.aws_iam_role.ecs_execution</title>
<polygon fill="none" stroke="black" points="566.5,-557 357.5,-557 357.5,-521 566.5,-521 566.5,-557"/>
<text text-anchor="middle" x="462" y="-535.3" font-family="sans-serif" font-size="14.00">aws_iam_role.ecs_execution</text>
</g>
<!-- module.ecs.aws_ecs_task_definition.backend&#45;&gt;module.ecs.aws_iam_role.ecs_execution -->
<g id="edge14" class="edge">
<title>module.ecs.aws_ecs_task_definition.backend&#45;&gt;module.ecs.aws_iam_role.ecs_execution</title>
<path fill="none" stroke="black" d="M683.78,-513.22C648.96,-517.28 611.14,-521.7 576.81,-525.71"/>
<polygon fill="black" stroke="black" points="576.28,-522.25 566.75,-526.88 577.09,-529.2 576.28,-522.25"/>
</g>
<!-- module.ecs.aws_iam_role.ecs_task -->
<g id="node14" class="node">
<title>module.ecs.aws_iam_role.ecs_task</title>
<polygon fill="none" stroke="black" points="548,-618 376,-618 376,-582 548,-582 548,-618"/>
<text text-anchor="middle" x="462" y="-596.3" font-family="sans-serif" font-size="14.00">aws_iam_role.ecs_task</text>
</g>
<!-- module.ecs.aws_ecs_task_definition.backend&#45;&gt;module.ecs.aws_iam_role.ecs_task -->
<g id="edge15" class="edge">
<title>module.ecs.aws_ecs_task_definition.backend&#45;&gt;module.ecs.aws_iam_role.ecs_task</title>
<path fill="none" stroke="black" d="M683.81,-507.8C666.79,-511.99 650.01,-517.85 635,-526 613.98,-537.41 619.5,-553.67 599,-566 586.46,-573.54 572.31,-579.42 557.99,-583.99"/>
<polygon fill="black" stroke="black" points="556.66,-580.74 548.08,-586.96 558.66,-587.45 556.66,-580.74"/>
</g>
<!-- module.ecs.aws_secretsmanager_secret.backend -->
<g id="node17" class="node">
<title>module.ecs.aws_secretsmanager_secret.backend</title>
<polygon fill="none" stroke="black" points="599,-490 325,-490 325,-454 599,-454 599,-490"/>
<text text-anchor="middle" x="462" y="-468.3" font-family="sans-serif" font-size="14.00">aws_secretsmanager_secret.backend</text>
</g>
<!-- module.ecs.aws_ecs_task_definition.backend&#45;&gt;module.ecs.aws_secretsmanager_secret.backend -->
<g id="edge16" class="edge">
<title>module.ecs.aws_ecs_task_definition.backend&#45;&gt;module.ecs.aws_secretsmanager_secret.backend</title>
<path fill="none" stroke="black" d="M683.78,-489.4C659.7,-487.51 634.19,-485.5 609.39,-483.54"/>
<polygon fill="black" stroke="black" points="609.43,-480.03 599.19,-482.74 608.88,-487.01 609.43,-480.03"/>
</g>
<!-- module.rds.aws_db_instance.postgres -->
<g id="node30" class="node">
<title>module.rds.aws_db_instance.postgres</title>
<polygon fill="none" stroke="black" points="1246.5,-380 1048.5,-380 1048.5,-344 1246.5,-344 1246.5,-380"/>
<text text-anchor="middle" x="1147.5" y="-358.3" font-family="sans-serif" font-size="14.00">aws_db_instance.postgres</text>
</g>
<!-- module.ecs.aws_ecs_task_definition.backend&#45;&gt;module.rds.aws_db_instance.postgres -->
<g id="edge17" class="edge">
<title>module.ecs.aws_ecs_task_definition.backend&#45;&gt;module.rds.aws_db_instance.postgres</title>
<path fill="none" stroke="black" d="M929.21,-492.8C946.5,-488.29 963.36,-481.64 978,-472 1003.03,-455.52 990.97,-434.16 1014,-415 1029.96,-401.72 1049.66,-391.46 1068.95,-383.66"/>
<polygon fill="black" stroke="black" points="1070.3,-386.89 1078.37,-380.02 1067.78,-380.36 1070.3,-386.89"/>
</g>
<!-- module.ecs.aws_iam_role_policy.ecs_task_secrets -->
<g id="node15" class="node">
<title>module.ecs.aws_iam_role_policy.ecs_task_secrets</title>
<polygon fill="none" stroke="black" points="943,-625 670,-625 670,-589 943,-589 943,-625"/>
<text text-anchor="middle" x="806.5" y="-603.3" font-family="sans-serif" font-size="14.00">aws_iam_role_policy.ecs_task_secrets</text>
</g>
<!-- module.ecs.aws_iam_role_policy.ecs_task_secrets&#45;&gt;module.ecs.aws_iam_role.ecs_task -->
<g id="edge18" class="edge">
<title>module.ecs.aws_iam_role_policy.ecs_task_secrets&#45;&gt;module.ecs.aws_iam_role.ecs_task</title>
<path fill="none" stroke="black" d="M669.64,-604.22C632.33,-603.46 592.68,-602.65 558.19,-601.95"/>
<polygon fill="black" stroke="black" points="558.2,-598.45 548.13,-601.74 558.06,-605.44 558.2,-598.45"/>
</g>
<!-- module.ecs.aws_iam_role_policy_attachment.ecs_execution -->
<g id="node16" class="node">
<title>module.ecs.aws_iam_role_policy_attachment.ecs_execution</title>
<polygon fill="none" stroke="black" points="978,-571 635,-571 635,-535 978,-535 978,-571"/>
<text text-anchor="middle" x="806.5" y="-549.3" font-family="sans-serif" font-size="14.00">aws_iam_role_policy_attachment.ecs_execution</text>
</g>
<!-- module.ecs.aws_iam_role_policy_attachment.ecs_execution&#45;&gt;module.ecs.aws_iam_role.ecs_execution -->
<g id="edge19" class="edge">
<title>module.ecs.aws_iam_role_policy_attachment.ecs_execution&#45;&gt;module.ecs.aws_iam_role.ecs_execution</title>
<path fill="none" stroke="black" d="M634.75,-546.02C615.1,-545.22 595.44,-544.41 576.8,-543.65"/>
<polygon fill="black" stroke="black" points="576.7,-540.14 566.56,-543.23 576.41,-547.14 576.7,-540.14"/>
</g>
<!-- module.ecs.aws_secretsmanager_secret_version.backend -->
<g id="node18" class="node">
<title>module.ecs.aws_secretsmanager_secret_version.backend</title>
<polygon fill="none" stroke="black" points="972.5,-463 640.5,-463 640.5,-427 972.5,-427 972.5,-463"/>
<text text-anchor="middle" x="806.5" y="-441.3" font-family="sans-serif" font-size="14.00">aws_secretsmanager_secret_version.backend</text>
</g>
<!-- module.ecs.aws_secretsmanager_secret_version.backend&#45;&gt;module.ecs.aws_secretsmanager_secret.backend -->
<g id="edge20" class="edge">
<title>module.ecs.aws_secretsmanager_secret_version.backend&#45;&gt;module.ecs.aws_secretsmanager_secret.backend</title>
<path fill="none" stroke="black" d="M640.27,-458.03C629.94,-458.84 619.58,-459.66 609.35,-460.46"/>
<polygon fill="black" stroke="black" points="608.85,-456.99 599.16,-461.27 609.4,-463.97 608.85,-456.99"/>
</g>
<!-- module.ecs.aws_security_group.backend_sg -->
<g id="node19" class="node">
<title>module.ecs.aws_security_group.backend_sg</title>
<polygon fill="none" stroke="black" points="1267,-463 1028,-463 1028,-427 1267,-427 1267,-463"/>
<text text-anchor="middle" x="1147.5" y="-441.3" font-family="sans-serif" font-size="14.00">aws_security_group.backend_sg</text>
</g>
<!-- module.ecs.aws_security_group.backend_sg&#45;&gt;module.alb.aws_security_group.alb_sg -->
<g id="edge21" class="edge">
<title>module.ecs.aws_security_group.backend_sg&#45;&gt;module.alb.aws_security_group.alb_sg</title>
<path fill="none" stroke="black" d="M1123.1,-463.09C1093.73,-486.92 1043.64,-531.53 1014,-580 987.6,-623.16 1017.35,-656.2 978,-688 918.35,-736.2 711.01,-715.83 635,-726 615.05,-728.67 593.83,-731.78 573.37,-734.92"/>
<polygon fill="black" stroke="black" points="572.74,-731.47 563.39,-736.46 573.81,-738.39 572.74,-731.47"/>
</g>
<!-- module.elasticache.aws_elasticache_cluster.redis -->
<g id="node20" class="node">
<title>module.elasticache.aws_elasticache_cluster.redis</title>
<polygon fill="none" stroke="black" points="1840,-313 1622,-313 1622,-277 1840,-277 1840,-313"/>
<text text-anchor="middle" x="1731" y="-291.3" font-family="sans-serif" font-size="14.00">aws_elasticache_cluster.redis</text>
</g>
<!-- module.elasticache.aws_elasticache_subnet_group.main -->
<g id="node21" class="node">
<title>module.elasticache.aws_elasticache_subnet_group.main</title>
<polygon fill="none" stroke="black" points="1586,-286 1317,-286 1317,-250 1586,-250 1586,-286"/>
<text text-anchor="middle" x="1451.5" y="-264.3" font-family="sans-serif" font-size="14.00">aws_elasticache_subnet_group.main</text>
</g>
<!-- module.elasticache.aws_elasticache_cluster.redis&#45;&gt;module.elasticache.aws_elasticache_subnet_group.main -->
<g id="edge22" class="edge">
<title>module.elasticache.aws_elasticache_cluster.redis&#45;&gt;module.elasticache.aws_elasticache_subnet_group.main</title>
<path fill="none" stroke="black" d="M1621.92,-284.48C1613.49,-283.66 1604.91,-282.83 1596.31,-281.99"/>
<polygon fill="black" stroke="black" points="1596.49,-278.49 1586.2,-281.01 1595.81,-285.46 1596.49,-278.49"/>
</g>
<!-- module.elasticache.aws_security_group.redis -->
<g id="node22" class="node">
<title>module.elasticache.aws_security_group.redis</title>
<polygon fill="none" stroke="black" points="1547,-340 1356,-340 1356,-304 1547,-304 1547,-340"/>
<text text-anchor="middle" x="1451.5" y="-318.3" font-family="sans-serif" font-size="14.00">aws_security_group.redis</text>
</g>
<!-- module.elasticache.aws_elasticache_cluster.redis&#45;&gt;module.elasticache.aws_security_group.redis -->
<g id="edge23" class="edge">
<title>module.elasticache.aws_elasticache_cluster.redis&#45;&gt;module.elasticache.aws_security_group.redis</title>
<path fill="none" stroke="black" d="M1621.92,-305.52C1600.63,-307.59 1578.34,-309.76 1557.17,-311.82"/>
<polygon fill="black" stroke="black" points="1556.82,-308.33 1547.21,-312.79 1557.5,-315.3 1556.82,-308.33"/>
</g>
<!-- module.networking.aws_subnet.private -->
<g id="node27" class="node">
<title>module.networking.aws_subnet.private</title>
<polygon fill="none" stroke="black" points="538,-135 386,-135 386,-99 538,-99 538,-135"/>
<text text-anchor="middle" x="462" y="-113.3" font-family="sans-serif" font-size="14.00">aws_subnet.private</text>
</g>
<!-- module.elasticache.aws_elasticache_subnet_group.main&#45;&gt;module.networking.aws_subnet.private -->
<g id="edge24" class="edge">
<title>module.elasticache.aws_elasticache_subnet_group.main&#45;&gt;module.networking.aws_subnet.private</title>
<path fill="none" stroke="black" d="M1428.67,-249.95C1399.12,-226.69 1343.75,-187.22 1289,-170 1029.04,-88.23 700.95,-98.53 548.32,-109.36"/>
<polygon fill="black" stroke="black" points="547.8,-105.88 538.09,-110.1 548.31,-112.87 547.8,-105.88"/>
</g>
<!-- module.elasticache.aws_security_group.redis&#45;&gt;module.ecs.aws_security_group.backend_sg -->
<g id="edge25" class="edge">
<title>module.elasticache.aws_security_group.redis&#45;&gt;module.ecs.aws_security_group.backend_sg</title>
<path fill="none" stroke="black" d="M1424.91,-340.13C1394.08,-361.15 1340.05,-395.41 1289,-415 1280.01,-418.45 1270.53,-421.54 1260.91,-424.31"/>
<polygon fill="black" stroke="black" points="1259.98,-420.93 1251.27,-426.96 1261.84,-427.68 1259.98,-420.93"/>
</g>
<!-- module.networking.data.aws_availability_zones.available -->
<g id="node23" class="node">
<title>module.networking.data.aws_availability_zones.available</title>
<polygon fill="none" stroke="black" points="289,-162 16,-162 16,-126 289,-126 289,-162"/>
<text text-anchor="middle" x="152.5" y="-140.3" font-family="sans-serif" font-size="14.00">data.aws_availability_zones.available</text>
</g>
<!-- module.networking.aws_internet_gateway.main -->
<g id="node24" class="node">
<title>module.networking.aws_internet_gateway.main</title>
<polygon fill="none" stroke="black" points="565,-243 359,-243 359,-207 565,-207 565,-243"/>
<text text-anchor="middle" x="462" y="-221.3" font-family="sans-serif" font-size="14.00">aws_internet_gateway.main</text>
</g>
<!-- module.networking.aws_internet_gateway.main&#45;&gt;module.networking.aws_vpc.main -->
<g id="edge26" class="edge">
<title>module.networking.aws_internet_gateway.main&#45;&gt;module.networking.aws_vpc.main</title>
<path fill="none" stroke="black" d="M358.61,-225C312.87,-225 260.27,-225 219.8,-225"/>
<polygon fill="black" stroke="black" points="219.78,-221.5 209.78,-225 219.78,-228.5 219.78,-221.5"/>
</g>
<!-- module.networking.aws_route_table.public -->
<g id="node25" class="node">
<title>module.networking.aws_route_table.public</title>
<polygon fill="none" stroke="black" points="893.5,-238 719.5,-238 719.5,-202 893.5,-202 893.5,-238"/>
<text text-anchor="middle" x="806.5" y="-216.3" font-family="sans-serif" font-size="14.00">aws_route_table.public</text>
</g>
<!-- module.networking.aws_route_table.public&#45;&gt;module.networking.aws_internet_gateway.main -->
<g id="edge27" class="edge">
<title>module.networking.aws_route_table.public&#45;&gt;module.networking.aws_internet_gateway.main</title>
<path fill="none" stroke="black" d="M719.07,-221.26C675.5,-221.9 622.13,-222.68 575.41,-223.36"/>
<polygon fill="black" stroke="black" points="575.19,-219.86 565.24,-223.51 575.29,-226.86 575.19,-219.86"/>
</g>
<!-- module.networking.aws_route_table_association.public -->
<g id="node26" class="node">
<title>module.networking.aws_route_table_association.public</title>
<polygon fill="none" stroke="black" points="1276.5,-215 1018.5,-215 1018.5,-179 1276.5,-179 1276.5,-215"/>
<text text-anchor="middle" x="1147.5" y="-193.3" font-family="sans-serif" font-size="14.00">aws_route_table_association.public</text>
</g>
<!-- module.networking.aws_route_table_association.public&#45;&gt;module.networking.aws_route_table.public -->
<g id="edge28" class="edge">
<title>module.networking.aws_route_table_association.public&#45;&gt;module.networking.aws_route_table.public</title>
<path fill="none" stroke="black" d="M1018.34,-205.7C980.45,-208.27 939.63,-211.04 904.1,-213.45"/>
<polygon fill="black" stroke="black" points="903.48,-209.98 893.74,-214.15 903.95,-216.96 903.48,-209.98"/>
</g>
<!-- module.networking.aws_route_table_association.public&#45;&gt;module.networking.aws_subnet.public -->
<g id="edge29" class="edge">
<title>module.networking.aws_route_table_association.public&#45;&gt;module.networking.aws_subnet.public</title>
<path fill="none" stroke="black" d="M1018.34,-192.12C879.56,-186.85 662.33,-178.58 544.92,-174.12"/>
<polygon fill="black" stroke="black" points="545.04,-170.62 534.92,-173.74 544.78,-177.61 545.04,-170.62"/>
</g>
<!-- module.networking.aws_subnet.private&#45;&gt;module.networking.data.aws_availability_zones.available -->
<g id="edge30" class="edge">
<title>module.networking.aws_subnet.private&#45;&gt;module.networking.data.aws_availability_zones.available</title>
<path fill="none" stroke="black" d="M385.78,-123.6C359.58,-125.91 329.22,-128.57 299.27,-131.2"/>
<polygon fill="black" stroke="black" points="298.79,-127.73 289.14,-132.09 299.4,-134.7 298.79,-127.73"/>
</g>
<!-- module.networking.aws_subnet.private&#45;&gt;module.networking.aws_vpc.main -->
<g id="edge31" class="edge">
<title>module.networking.aws_subnet.private&#45;&gt;module.networking.aws_vpc.main</title>
<path fill="none" stroke="black" d="M385.77,-122.71C362.77,-126.63 338.02,-133.15 317,-144 301.64,-151.93 303.52,-161.62 289,-171 267.68,-184.76 242.3,-196.02 219.3,-204.63"/>
<polygon fill="black" stroke="black" points="217.8,-201.45 209.6,-208.16 220.19,-208.03 217.8,-201.45"/>
</g>
<!-- module.networking.aws_subnet.public&#45;&gt;module.networking.data.aws_availability_zones.available -->
<g id="edge32" class="edge">
<title>module.networking.aws_subnet.public&#45;&gt;module.networking.data.aws_availability_zones.available</title>
<path fill="none" stroke="black" d="M389.29,-164.7C362.31,-162.33 330.56,-159.55 299.25,-156.8"/>
<polygon fill="black" stroke="black" points="299.38,-153.3 289.11,-155.91 298.76,-160.27 299.38,-153.3"/>
</g>
<!-- module.networking.aws_subnet.public&#45;&gt;module.networking.aws_vpc.main -->
<g id="edge33" class="edge">
<title>module.networking.aws_subnet.public&#45;&gt;module.networking.aws_vpc.main</title>
<path fill="none" stroke="black" d="M389.29,-183.59C338.16,-192.57 269.89,-204.56 219.98,-213.33"/>
<polygon fill="black" stroke="black" points="219.18,-209.91 209.94,-215.09 220.39,-216.81 219.18,-209.91"/>
</g>
<!-- module.rds.aws_db_subnet_group.main -->
<g id="node31" class="node">
<title>module.rds.aws_db_subnet_group.main</title>
<polygon fill="none" stroke="black" points="911,-326 702,-326 702,-290 911,-290 911,-326"/>
<text text-anchor="middle" x="806.5" y="-304.3" font-family="sans-serif" font-size="14.00">aws_db_subnet_group.main</text>
</g>
<!-- module.rds.aws_db_instance.postgres&#45;&gt;module.rds.aws_db_subnet_group.main -->
<g id="edge34" class="edge">
<title>module.rds.aws_db_instance.postgres&#45;&gt;module.rds.aws_db_subnet_group.main</title>
<path fill="none" stroke="black" d="M1048.49,-346.26C1025.38,-342.56 1000.82,-338.64 978,-335 959.6,-332.07 940.08,-328.97 921.08,-325.96"/>
<polygon fill="black" stroke="black" points="921.62,-322.5 911.19,-324.39 920.52,-329.41 921.62,-322.5"/>
</g>
<!-- module.rds.aws_security_group.rds_sg -->
<g id="node32" class="node">
<title>module.rds.aws_security_group.rds_sg</title>
<polygon fill="none" stroke="black" points="908,-380 705,-380 705,-344 908,-344 908,-380"/>
<text text-anchor="middle" x="806.5" y="-358.3" font-family="sans-serif" font-size="14.00">aws_security_group.rds_sg</text>
</g>
<!-- module.rds.aws_db_instance.postgres&#45;&gt;module.rds.aws_security_group.rds_sg -->
<g id="edge35" class="edge">
<title>module.rds.aws_db_instance.postgres&#45;&gt;module.rds.aws_security_group.rds_sg</title>
<path fill="none" stroke="black" d="M1048.45,-362C1007.8,-362 960.44,-362 918.53,-362"/>
<polygon fill="black" stroke="black" points="918.28,-358.5 908.28,-362 918.28,-365.5 918.28,-358.5"/>
</g>
<!-- module.rds.aws_db_subnet_group.main&#45;&gt;module.networking.aws_subnet.private -->
<g id="edge36" class="edge">
<title>module.rds.aws_db_subnet_group.main&#45;&gt;module.networking.aws_subnet.private</title>
<path fill="none" stroke="black" d="M701.91,-308.41C677.5,-303.81 653.29,-294.74 635,-278 589.51,-236.36 644.03,-186.13 599,-144 585.14,-131.04 566.92,-123.49 548.34,-119.27"/>
<polygon fill="black" stroke="black" points="548.8,-115.79 538.31,-117.3 547.45,-122.66 548.8,-115.79"/>
</g>
<!-- module.rds.aws_security_group.rds_sg&#45;&gt;module.ecs.aws_security_group.backend_sg -->
<g id="edge37" class="edge">
<title>module.rds.aws_security_group.rds_sg&#45;&gt;module.ecs.aws_security_group.backend_sg</title>
<path fill="none" stroke="black" d="M875.74,-380.04C915.92,-390.53 967.77,-403.84 1014,-415 1027.28,-418.21 1041.34,-421.5 1055.14,-424.67"/>
<polygon fill="black" stroke="black" points="1054.6,-428.14 1065.13,-426.96 1056.16,-421.32 1054.6,-428.14"/>
</g>
</g>
</svg>
