<svg width="150" xmlns="http://www.w3.org/2000/svg" height="150" id="screenshot-7c00b493-4652-8049-8007-e66c5a6d260e" viewBox="884 407 150 150" style="-webkit-print-color-adjust::exact" xmlns:xlink="http://www.w3.org/1999/xlink" fill="none" version="1.1">
  <g id="shape-7c00b493-4652-8049-8007-e66c5a6d260e" rx="0" ry="0">
    <g id="shape-7c00b493-4652-8049-8007-e66853aad5a4">
      <g class="fills" id="fills-7c00b493-4652-8049-8007-e66853aad5a4">
        <rect rx="0" ry="0" x="884" y="407" transform="matrix(1.000000, 0.000000, 0.000000, 1.000000, 0.000000, 0.000000)" width="150" height="150" style="fill:#a8d;fill-opacity:1">
        </rect>
      </g>
    </g>
    <g id="shape-7c00b493-4652-8049-8007-e669d0a81a95">
      <g class="fills" id="fills-7c00b493-4652-8049-8007-e669d0a81a95">
        <rect rx="0" ry="0" x="935" y="424" transform="matrix(1.000000, 0.000000, 0.000000, 1.000000, 0.000000, 0.000000)" width="3" height="25" style="fill:#f5f0e0;fill-opacity:1">
        </rect>
      </g>
    </g>
    <g id="shape-7c00b493-4652-8049-8007-e669dc2ab91e">
      <g class="fills" id="fills-7c00b493-4652-8049-8007-e669dc2ab91e">
        <rect rx="0" ry="0" x="977" y="424" transform="matrix(1.000000, 0.000000, 0.000000, 1.000000, 0.000000, 0.000000)" width="3" height="25" style="fill:#f5f0e0;fill-opacity:1">
        </rect>
      </g>
    </g>
    <g id="shape-7c00b493-4652-8049-8007-e669debe2abb">
      <g class="fills" id="fills-7c00b493-4652-8049-8007-e669debe2abb">
        <rect rx="0" ry="0" x="956" y="424" transform="matrix(1.000000, 0.000000, 0.000000, 1.000000, 0.000000, 0.000000)" width="3" height="25" style="fill:#f5f0e0;fill-opacity:1">
        </rect>
      </g>
    </g>
    <g id="shape-7c00b493-4652-8049-8007-e66a19b8a82b">
      <g class="fills" id="fills-7c00b493-4652-8049-8007-e66a19b8a82b">
        <rect rx="0" ry="0" x="935" y="516" transform="matrix(1.000000, 0.000000, 0.000000, 1.000000, 0.000000, 0.000000)" width="3" height="25" style="fill:#f5f0e0;fill-opacity:1">
        </rect>
      </g>
    </g>
    <g id="shape-7c00b493-4652-8049-8007-e66a19b8a82c">
      <g class="fills" id="fills-7c00b493-4652-8049-8007-e66a19b8a82c">
        <rect rx="0" ry="0" x="977" y="516" transform="matrix(1.000000, 0.000000, 0.000000, 1.000000, 0.000000, 0.000000)" width="3" height="25" style="fill:#f5f0e0;fill-opacity:1">
        </rect>
      </g>
    </g>
    <g id="shape-7c00b493-4652-8049-8007-e66a19b8a82d">
      <g class="fills" id="fills-7c00b493-4652-8049-8007-e66a19b8a82d">
        <rect rx="0" ry="0" x="956" y="516" transform="matrix(1.000000, 0.000000, 0.000000, 1.000000, 0.000000, 0.000000)" width="3" height="25" style="fill:#f5f0e0;fill-opacity:1">
        </rect>
      </g>
    </g>
    <g id="shape-7c00b493-4652-8049-8007-e669f8dd62ef">
      <g class="fills" id="fills-7c00b493-4652-8049-8007-e669f8dd62ef">
        <rect rx="0" ry="0" x="1003" y="491.9999999999999" transform="matrix(0.000000, -1.000000, 1.000000, 0.000000, 500.000000, 1509.000000)" width="3" height="25" style="fill:#f5f0e0;fill-opacity:1">
        </rect>
      </g>
    </g>
    <g id="shape-7c00b493-4652-8049-8007-e669f8dd62f0">
      <g class="fills" id="fills-7c00b493-4652-8049-8007-e669f8dd62f0">
        <rect rx="0" ry="0" x="1003" y="450" transform="matrix(0.000000, -1.000000, 1.000000, 0.000000, 542.000000, 1467.000000)" width="3" height="25" style="fill:#f5f0e0;fill-opacity:1">
        </rect>
      </g>
    </g>
    <g id="shape-7c00b493-4652-8049-8007-e669f8dd62f1">
      <g class="fills" id="fills-7c00b493-4652-8049-8007-e669f8dd62f1">
        <rect rx="0" ry="0" x="1003" y="471" transform="matrix(0.000000, -1.000000, 1.000000, 0.000000, 521.000000, 1488.000000)" width="3" height="25" style="fill:#f5f0e0;fill-opacity:1">
        </rect>
      </g>
    </g>
    <g id="shape-7c00b493-4652-8049-8007-e669feebcb5d">
      <g class="fills" id="fills-7c00b493-4652-8049-8007-e669feebcb5d">
        <rect rx="0" ry="0" x="911" y="491.9999999999999" transform="matrix(0.000000, -1.000000, 1.000000, 0.000000, 408.000000, 1417.000000)" width="3" height="25" style="fill:#f5f0e0;fill-opacity:1">
        </rect>
      </g>
    </g>
    <g id="shape-7c00b493-4652-8049-8007-e669feebcb5e">
      <g class="fills" id="fills-7c00b493-4652-8049-8007-e669feebcb5e">
        <rect rx="0" ry="0" x="911" y="450" transform="matrix(0.000000, -1.000000, 1.000000, 0.000000, 450.000000, 1375.000000)" width="3" height="25" style="fill:#f5f0e0;fill-opacity:1">
        </rect>
      </g>
    </g>
    <g id="shape-7c00b493-4652-8049-8007-e669feebcb5f">
      <g class="fills" id="fills-7c00b493-4652-8049-8007-e669feebcb5f">
        <rect rx="0" ry="0" x="911" y="471" transform="matrix(0.000000, -1.000000, 1.000000, 0.000000, 429.000000, 1396.000000)" width="3" height="25" style="fill:#f5f0e0;fill-opacity:1">
        </rect>
      </g>
    </g>
    <g id="shape-7c00b493-4652-8049-8007-e66b97ffe3ae">
      <g class="fills" id="fills-7c00b493-4652-8049-8007-e66b97ffe3ae">
        <rect rx="0" ry="0" x="946" y="470" transform="matrix(1.000000, 0.000000, 0.000000, 1.000000, 0.000000, 0.000000)" width="25" height="25" style="fill:#f5f0e0;fill-opacity:1">
        </rect>
      </g>
    </g>
    <g id="shape-7c00b493-4652-8049-8007-e66bae2e8717">
      <g class="fills" id="fills-7c00b493-4652-8049-8007-e66bae2e8717">
        <rect rx="0" ry="0" x="949" y="473" transform="matrix(1.000000, 0.000000, 0.000000, 1.000000, 0.000000, 0.000000)" width="19" height="19" style="fill:#a8d;fill-opacity:1">
        </rect>
      </g>
    </g>
  </g>
</svg>
